<svg width="100" height="100" viewBox="0 0 100 100" fill="none" xmlns="http://www.w3.org/2000/svg">
<path d="M30.1735 76.6661C23.8268 71.0661 20.6668 64.2528 20.6668 56.5061V20.0595C36.5535 19.5861 46.1202 15.1195 49.8535 13.3928C51.9402 14.5528 57.4802 16.7261 64.5802 18.2728M73.5402 19.8061C75.4068 20.0061 77.3468 20.1395 79.4135 20.2061V56.5061C79.4135 66.2528 74.4735 74.3995 64.7468 80.7461C60.1732 83.6052 55.2415 85.8468 50.0802 87.4128C44.891 85.9212 39.9493 83.675 35.4135 80.7461L34.2135 79.9395M82.0468 14.9795C62.8868 14.9795 49.8802 7.43945 49.8802 7.43945C49.8802 7.43945 37.5135 14.9128 18.0868 14.9128H15.4868V56.4395C15.4868 67.9261 21.4268 77.8061 32.6401 85.1061C37.8128 88.4174 43.4662 90.909 49.4002 92.4928L49.7335 92.5595H50.3335L50.6002 92.4928C56.5306 90.9131 62.1768 88.4139 67.3335 85.0861C78.5468 77.8728 84.4868 67.9261 84.4868 56.4195V14.9795H82.0468Z" stroke="#2D3139" stroke-width="2" stroke-linecap="round" stroke-linejoin="round"/>
<path d="M55.6201 27.627C55.6201 27.627 44.3867 40.667 44.3867 47.0936C44.3725 48.5731 44.6533 50.0405 45.2127 51.4102C45.7721 52.7799 46.5989 54.0244 47.6448 55.0709C48.6906 56.1174 49.9346 56.9449 51.304 57.5051C52.6733 58.0653 54.1406 58.347 55.6201 58.3336C58.5973 58.3213 61.4491 57.1332 63.5544 55.0279C65.6596 52.9227 66.8478 50.0709 66.8601 47.0936C66.8601 40.0536 55.3867 27.627 55.6201 27.627Z" stroke="#8F8BEF" stroke-width="3.33" stroke-linecap="round" stroke-linejoin="round"/>
<path d="M37.8202 52.707C37.8202 52.707 32.9135 59.1204 33.1535 62.127C33.1973 62.8125 33.3757 63.4827 33.6785 64.0993C33.9812 64.7158 34.4025 65.2667 34.9182 65.7205C35.4338 66.1743 36.0338 66.522 36.6839 66.7439C37.334 66.9658 38.0214 67.0575 38.7069 67.0137C39.3924 66.9699 40.0625 66.7916 40.6791 66.4888C41.2957 66.186 41.8466 65.7648 42.3003 65.2491C42.7541 64.7334 43.1019 64.1334 43.3238 63.4833C43.5456 62.8333 43.6373 62.1459 43.5935 61.4604C43.3335 58.167 37.7402 52.707 37.8202 52.707Z" stroke="#8F8BEF" stroke-width="3.33" stroke-linecap="round" stroke-linejoin="round"/>
</svg>
