<svg width="100" height="100" viewBox="0 0 100 100" fill="none" xmlns="http://www.w3.org/2000/svg">
<g id="confirmation/button">
<path id="Vector" d="M44.54 38.5733H19.2067C16.2341 38.5557 13.3888 37.3648 11.29 35.2597C9.19119 33.1547 8.00874 30.3058 8 27.3333C8.00878 24.3561 9.1949 21.5033 11.2995 19.3974C13.404 17.2916 16.2562 16.1038 19.2333 16.0933H80.7667C83.7438 16.1038 86.596 17.2916 88.7005 19.3974C90.8051 21.5033 91.9912 24.3561 92 27.3333C91.9912 30.3116 90.8042 33.1654 88.6982 35.2714C86.5922 37.3774 83.7383 38.5645 80.76 38.5733H73.4267" stroke="#2D3139" stroke-width="2" stroke-linecap="round" stroke-linejoin="round"/>
<path id="Vector_2" d="M56.4622 92.6665L37.9556 68.9065C37.1018 68.0833 36.6041 66.9586 36.5689 65.7732C36.5245 64.8914 36.7116 64.0134 37.1115 63.2263C37.5115 62.4392 38.1105 61.7704 38.8489 61.2865C42.1489 59.1132 46.6356 61.2865 46.8489 61.3865C46.8706 61.3798 46.8939 61.3798 46.9156 61.3865L53.4489 65.6065V32.0732C53.4489 32.0065 53.5156 26.6932 58.8289 26.6932C60.2154 26.6129 61.5799 27.0672 62.6414 27.9626C63.703 28.858 64.3809 30.1263 64.5356 31.5065V49.4198C65.7521 48.5463 67.2259 48.1051 68.7222 48.1665C72.0556 48.1665 73.5422 50.9065 73.9022 52.6198C75.288 51.9914 76.8019 51.6968 78.3222 51.7598C81.7222 51.7598 82.9889 54.7598 83.3089 55.6532C83.3089 55.7865 83.3756 55.9132 83.4022 56.0465C84.6483 55.1281 86.1611 54.6433 87.7089 54.6665C91.1022 54.6665 92.4222 58.1332 92.6222 59.9465V72.7732" stroke="#FF5151" stroke-width="3.33" stroke-linecap="round" stroke-linejoin="round"/>
<path id="Vector_3" d="M21.1172 23.8066H44.8372" stroke="#2D3139" stroke-width="2" stroke-linecap="round" stroke-linejoin="round"/>
<path id="Vector_4" d="M21.1172 30.0933H44.8372" stroke="#2D3139" stroke-width="2" stroke-linecap="round" stroke-linejoin="round"/>
</g>
</svg>
