<svg width="100" height="100" viewBox="0 0 100 100" fill="none" xmlns="http://www.w3.org/2000/svg">
<path d="M30.9604 70.04L38.0005 88.5733C38.173 88.995 38.5012 89.334 38.917 89.5202C39.3328 89.7064 39.8043 89.7254 40.2338 89.5733L42.0804 88.8666C42.5016 88.6955 42.8406 88.3685 43.0268 87.9538C43.2131 87.5391 43.2323 87.0685 43.0805 86.64L36.5138 69.3066" stroke="#2D3139" stroke-width="2" stroke-linecap="round" stroke-linejoin="round"/>
<path d="M63.6865 68.3136L27.5465 69.6469L19.3332 72.7669C18.3553 73.1233 17.277 73.0846 16.3273 72.6589C15.3775 72.2332 14.6311 71.454 14.2465 70.4869L8.51316 55.4536C8.1551 54.4741 8.19376 53.3934 8.62091 52.442C9.04805 51.4906 9.82991 50.7436 10.7998 50.3603L19.0265 47.2336C19.1065 47.1669 56.1665 16.0803 56.5732 15.9003C56.8974 15.7462 57.2532 15.6702 57.612 15.6783C57.9709 15.6864 58.3229 15.7784 58.6398 15.9469C58.8275 16.042 59.0023 16.1608 59.1598 16.3003C59.6803 16.8477 60.0501 17.5207 60.2332 18.2536L78.0332 65.0736C78.1475 65.425 78.172 65.7995 78.1044 66.1628C78.0369 66.5261 77.8795 66.8667 77.6465 67.1536C77.4562 67.396 77.2147 67.5934 76.9393 67.7317C76.6638 67.87 76.3613 67.9458 76.0532 67.9536C74.8465 68.0736 73.5998 68.0269 72.3798 68.0736" stroke="#2D3139" stroke-width="2" stroke-linecap="round" stroke-linejoin="round"/>
<path d="M20.0737 51.3398L25.6671 66.0398" stroke="#2D3139" stroke-width="2" stroke-linecap="round" stroke-linejoin="round"/>
<path d="M69.6401 24.2461C74.6343 26.9785 78.4463 31.4555 80.3477 36.8213C82.249 42.1872 82.1063 48.0655 79.9468 53.3328" stroke="#8F8BEF" stroke-width="3.33" stroke-linecap="round" stroke-linejoin="round"/>
<path d="M65.5933 31.1406C68.9604 32.9799 71.5305 35.9969 72.8111 39.6136C74.0917 43.2303 73.9928 47.1923 72.5333 50.7406" stroke="#2D3139" stroke-width="2" stroke-linecap="round" stroke-linejoin="round"/>
<path d="M74.9937 16.3809C81.8657 19.9902 87.1479 26.0286 89.8111 33.3196C92.4744 40.6106 92.328 48.6319 89.4003 55.8209" stroke="#8F8BEF" stroke-width="3.33" stroke-linecap="round" stroke-linejoin="round"/>
</svg>
