<svg xmlns="http://www.w3.org/2000/svg" width="40" height="40" viewBox="0 0 40 40" fill="none">
  <path d="M20 0C8.95312 0 0 8.95312 0 20C0 31.0469 8.95312 40 20 40C31.0469 40 40 31.0469 40 20C40 8.95312 31.0469 0 20 0ZM23.2031 9.83594L23.625 10.2344L24.9062 9.57812L24.3047 10.9766L25.3281 11.9766L23.8281 11.6953L23.2109 13L23.0078 11.6406L21.5469 11.3047L22.8281 10.6484L22.75 10.0703L22.6484 9.28906L23.2031 9.83594ZM13.3828 17.6641L9.84375 14.9609L6.48438 17.5L7.80469 13.7031L4.42969 10.8828H8.64844L9.21094 9.28125L9.95312 7.10156L10.6953 9.28125L11.2578 10.8828H15.4766L12.0625 13.7422L13.3828 17.6641ZM18.5 6.39844L18.1172 5.69531L18.8359 5.99219L19.375 6.23438L20.3594 5.15625L20.2969 6.67969L21.6016 7.24219L20.1016 7.52344L19.9766 8.96094L19.3203 7.76562L17.8203 7.98438L18.7812 6.90625L18.5 6.39844ZM20.1406 21.1172H20.125V22.5391L19.2812 21.2578L17.8984 21.6797L18.7578 20.6016L18 19.3203L19.3594 19.7969L19.7188 19.3359L20.2188 18.7344L20.2031 19.5156V20.0938L21.5625 20.5703L20.1406 21.1172ZM24.6406 18.3203L23.4219 17.3984L22.2734 18.2812L22.7109 16.9766L21.5547 16.0156L22.9922 16L23.1719 15.4609L23.4297 14.7031L23.6875 15.4609L23.8906 16H25.3281L24.1641 16.9844L24.6406 18.3203Z" fill="#DE2910"/>
  <path d="M11.2422 10.8828L10.6797 9.28125L9.93752 7.10156L9.20314 9.28125L8.64064 10.8828H4.42189L7.79689 13.7031L6.47658 17.5L9.83595 14.9609L13.3828 17.6641L12.0391 13.7422L15.461 10.8828H11.2422Z" fill="#FFDE00"/>
  <path d="M19.3203 7.75781L19.9766 8.96094L20.1016 7.52344L21.6016 7.24219L20.2969 6.67969L20.3594 5.15625L19.3828 6.24219L18.836 6L18.1172 5.70313L18.5 6.39844L18.7813 6.89844L17.8203 7.97656L19.3203 7.75781Z" fill="#FFDE00"/>
  <path d="M22.8204 10.6406L21.5391 11.2969L23.0001 11.6406L23.2032 13L23.8204 11.6953L25.3204 11.9766L24.2969 10.9766L24.8985 9.57812L23.6172 10.2422L23.2032 9.83594L22.6407 9.28125L22.7422 10.0625L22.8204 10.6406Z" fill="#FFDE00"/>
  <path d="M23.8984 16L23.6953 15.4609L23.4375 14.7031L23.1797 15.4609L23 16L21.5625 16.0234L22.7187 16.9766L22.2813 18.2812L23.4219 17.3984L24.6406 18.3203L24.1797 16.9766L25.3359 16H23.8984Z" fill="#FFDE00"/>
  <path d="M20.1953 19.5234L20.2188 18.7422L19.7188 19.3359L19.3594 19.7969L18 19.3203L18.7578 20.6016L17.8985 21.6797L19.2813 21.2578L20.1172 22.5391V21.1172H20.1407L21.5625 20.5781L20.1953 20.1016V19.5234Z" fill="#FFDE00"/>
</svg>
