<svg xmlns="http://www.w3.org/2000/svg" width="40" height="40" viewBox="0 0 40 40" fill="none">
  <g clip-path="url(#clip0_30_1531)">
    <path d="M27.0039 1.26169C24.8242 0.449188 22.457 0.00387573 19.9961 0.00387573C17.5352 0.00387573 15.1758 0.449188 12.9961 1.26169L12.9922 18.3304L12.9883 38.7461C15.168 39.5586 17.5352 39.9961 19.9961 39.9961C22.457 39.9961 24.832 39.5429 27.0117 38.7304L27.0078 18.9508L27.0039 1.26169Z" fill="#F0F0F0"/>
    <path d="M39.9999 20C39.9999 11.4141 34.5937 4.10391 26.9999 1.26016V38.7344C34.5937 35.8984 39.9999 28.5859 39.9999 20Z" fill="#D80027"/>
    <path d="M0 20C0 28.5859 5.40391 35.9063 12.9977 38.75L13.0008 1.26016C5.40703 4.10391 0 11.4141 0 20Z" fill="#6DA544"/>
  </g>
  <defs>
    <clipPath id="clip0_30_1531">
      <rect width="40" height="40" rx="20" fill="white"/>
    </clipPath>
  </defs>
</svg>
