<svg width="64" height="64" viewBox="0 0 64 64" fill="none" xmlns="http://www.w3.org/2000/svg">
<g clip-path="url(#clip0_60071_6037)">
<path d="M32 64C49.6731 64 64 49.6731 64 32C64 14.3269 49.6731 0 32 0C14.3269 0 0 14.3269 0 32C0 49.6731 14.3269 64 32 64Z" fill="#EFECE8"/>
<path d="M28.2674 34.4366V22.6563C28.2671 21.8147 27.3649 20.6209 25.6492 20.2335C24.0674 19.8763 21.8816 20.2859 19.7977 22.6329C18.6267 24.3394 18.1373 26.7938 18.2928 29.3702C18.449 31.9593 19.2479 34.5207 20.4744 36.336L20.7186 36.6729C22.0211 38.371 24.5345 40.2155 27.0565 41.7481C28.3771 42.5507 29.6584 43.2437 30.6922 43.7569C31.7585 44.2863 32.4841 44.5859 32.7274 44.6514C33.1171 44.7565 33.7193 44.962 34.3416 45.17C34.9862 45.3854 35.6936 45.6175 36.3553 45.8018C36.9792 45.9757 37.5012 46.0858 37.866 46.1173C38.0587 45.4921 38.4359 44.9939 38.8094 44.6368C39.2708 44.1957 39.8369 43.8631 40.3045 43.7462C40.6732 43.654 41.344 43.5874 42.1492 43.5548C42.9842 43.521 44.0414 43.5212 45.2234 43.588C45.7658 43.6186 46.2882 43.6435 46.7078 43.7227C47.1528 43.8068 47.6489 43.9797 48.0291 44.4259C48.3836 44.8418 48.519 45.363 48.5926 45.8536C48.6678 46.3553 48.6992 46.9929 48.7264 47.7618L48.7518 48.6319C48.8017 50.6625 48.7831 52.6591 48.7566 53.9278V53.9346C48.7197 55.2464 47.5244 56.2438 46.2078 55.9766V55.9757C43.0728 55.3605 34.8931 53.5863 27.3377 50.4913C22.4607 48.4971 19.2665 46.0215 17.1512 43.8028C15.0417 41.5902 14.0173 39.6382 13.5262 38.8419C12.4111 37.034 9.05053 30.143 12.5525 21.6456C14.2911 17.4273 16.9335 14.4535 19.1346 12.5372C20.2358 11.5785 21.2309 10.88 21.9559 10.419C22.3185 10.1884 22.6146 10.0172 22.8231 9.90144C22.9273 9.84357 23.01 9.79992 23.0682 9.76961C23.0973 9.75446 23.1199 9.74188 23.1365 9.73348C23.1379 9.7328 23.1392 9.73216 23.1404 9.73152C23.1558 9.72298 23.1774 9.71169 23.2039 9.69734C23.2589 9.66757 23.3379 9.62594 23.4393 9.5743C23.6423 9.4708 23.9365 9.3268 24.3133 9.16023C25.0667 8.82718 26.1531 8.40001 27.5047 8.01375C30.2053 7.24196 33.9885 6.62641 38.2947 7.26766C42.8705 7.94921 45.3234 10.9948 46.6014 13.753C47.239 15.1292 47.5979 16.4564 47.7977 17.4356C47.8978 17.9265 47.9595 18.3344 47.9959 18.6231C48.0141 18.7676 48.0254 18.883 48.033 18.9639C48.0368 19.0044 48.04 19.0367 48.0418 19.0596C48.0427 19.071 48.0433 19.0801 48.0438 19.087C48.044 19.0904 48.0446 19.0935 48.0447 19.0958V19.0997C48.0448 19.1002 48.0445 19.1011 47.0467 19.1671L48.0447 19.1007L48.0467 19.1339V34.9366C48.0467 37.0789 46.3091 38.8165 44.1668 38.8165H44.1649L32.7195 38.7872H32.617C30.2147 38.7872 28.2674 36.8389 28.2674 34.4366ZM30.2674 34.4366C30.2674 35.7343 31.3193 36.7872 32.617 36.7872H32.7244L44.1668 36.8155C45.2045 36.8155 46.0467 35.9743 46.0467 34.9366V19.2071C46.0456 19.1935 46.044 19.1748 46.0418 19.1514C46.036 19.09 46.027 18.9956 46.0115 18.8731C45.9806 18.6278 45.9265 18.2703 45.8377 17.835C45.6594 16.9609 45.3417 15.7913 44.7869 14.5938C43.6799 12.2046 41.6837 9.79479 37.9998 9.24617C34.0463 8.65745 30.5589 9.22094 28.0545 9.9366C26.804 10.294 25.8041 10.6877 25.1219 10.9893C24.7812 11.1399 24.5201 11.2675 24.3475 11.3555C24.2614 11.3994 24.1971 11.4339 24.1561 11.4561L24.1033 11.4854L24.076 11.5011L24.0467 11.5137C24.0452 11.5145 24.0424 11.5173 24.0379 11.5196C24.0286 11.5243 24.0132 11.532 23.992 11.543C23.949 11.5654 23.8818 11.6006 23.7938 11.6495C23.6174 11.7474 23.3559 11.8997 23.0291 12.1075C22.3751 12.5234 21.4619 13.1624 20.4471 14.046C18.4157 15.8146 15.9926 18.5468 14.4012 22.4083C11.2436 30.0706 14.2834 36.26 15.2283 37.7921C15.7673 38.6659 16.6684 40.3985 18.5984 42.4229C20.4026 44.3153 23.1173 46.4669 27.2498 48.2823L28.0955 48.6407L28.0965 48.6417C35.4754 51.6643 43.5094 53.4096 46.5994 54.0157L46.6063 54.0167C46.6696 54.0293 46.7544 53.9867 46.7576 53.879C46.7836 52.6274 46.8015 50.6681 46.7527 48.6837L46.7274 47.8321C46.6996 47.0462 46.6707 46.5209 46.615 46.1495C46.5751 45.8833 46.5304 45.7722 46.5125 45.7354C46.4868 45.7248 46.434 45.7069 46.3367 45.6886C46.0779 45.6397 45.7178 45.6194 45.1102 45.585C43.9926 45.5219 43.0002 45.5226 42.2303 45.5538C41.4313 45.5861 40.9417 45.6487 40.7899 45.6866C40.7899 45.6866 40.7687 45.6929 40.7274 45.711C40.6864 45.729 40.6338 45.7547 40.574 45.7901C40.4533 45.8617 40.3187 45.9612 40.1922 46.0821C39.9298 46.333 39.7714 46.6106 39.741 46.879C39.6738 47.4736 39.2678 47.8354 38.8631 47.9942C38.5203 48.1287 38.1492 48.1386 37.8592 48.1241C37.2562 48.094 36.5163 47.9231 35.8182 47.7286C35.1025 47.5292 34.3524 47.2819 33.7078 47.0665C33.041 46.8436 32.522 46.6671 32.2068 46.5821C31.7451 46.4577 30.8517 46.0688 29.8025 45.5479C28.7207 45.0109 27.3892 44.2908 26.0174 43.4571C23.3225 41.8194 20.2975 39.6397 18.8192 37.4581L19.6883 36.8692L19.6473 36.8966L18.8192 37.4581L18.8182 37.4571L18.5506 37.0421C17.2473 34.9268 16.4595 32.1883 16.2967 29.4903C16.1236 26.6212 16.6501 23.6462 18.1873 21.4444L18.2186 21.3985L18.2557 21.3565C20.7799 18.4827 23.7064 17.7443 26.0897 18.2823C28.3485 18.7923 30.2671 20.5481 30.2674 22.6563V34.4366Z" fill="#2D3139"/>
<path d="M47.0576 24.3268V27.3268H37.5176V24.3268H47.0576Z" fill="#2D3139"/>
</g>
<defs>
<clipPath id="clip0_60071_6037">
<rect width="64" height="64" fill="white"/>
</clipPath>
</defs>
</svg>
